<?xml version="1.0" standalone="no"?>
<!DOCTYPE svg PUBLIC "-//W3C//DTD SVG 20010904//EN"
 "http://www.w3.org/TR/2001/REC-SVG-20010904/DTD/svg10.dtd">
<svg version="1.0" xmlns="http://www.w3.org/2000/svg"
 width="735.000000pt" height="736.000000pt" viewBox="0 0 735.000000 736.000000"
 preserveAspectRatio="xMidYMid meet">

<g transform="translate(0.000000,736.000000) scale(0.100000,-0.100000)"
fill="#000000" stroke="none">
<path d="M3990 6265 l0 -75 150 0 150 0 0 75 0 75 -150 0 -150 0 0 -75z"/>
<path d="M3824 6155 c-3 -17 -4 -51 -2 -75 l3 -45 78 -3 77 -3 0 75 0 74 -75
4 -75 3 -6 -30z"/>
<path d="M3670 5945 l0 -75 -155 0 -154 0 -3 -77 -3 -76 -73 -1 -74 -1 -2 -75
c-2 -41 -4 -78 -5 -82 0 -5 -35 -8 -76 -8 l-75 0 0 -310 0 -310 -235 0 -236 0
3 -77 3 -78 230 0 230 0 5 80 5 80 72 3 72 3 3 -83 3 -83 77 -3 77 -3 -1 -72
-1 -72 389 0 389 0 3 73 3 72 74 0 74 0 3 83 3 82 55 2 c30 1 65 2 78 2 l22 1
0 305 0 304 -77 3 -78 3 -5 80 -5 80 -70 3 c-38 2 -72 6 -74 8 -3 3 -6 35 -7
72 l-3 67 -155 3 -156 3 0 74 0 75 -75 0 -75 0 0 -75z m3 -618 l2 -77 -162 0
-163 0 0 80 0 80 161 -2 161 -3 1 -78z"/>
<path d="M2110 5015 l0 -75 235 0 235 0 0 75 0 75 -235 0 -235 0 0 -75z"/>
<path d="M4767 5083 c-4 -3 -7 -37 -7 -75 l0 -68 235 0 235 0 0 75 0 75 -228
0 c-126 0 -232 -3 -235 -7z"/>
<path d="M1950 4700 l0 -230 75 0 75 0 0 230 0 230 -75 0 -75 0 0 -230z"/>
<path d="M4452 4853 l3 -78 153 -3 152 -3 0 81 0 80 -155 0 -156 0 3 -77z"/>
<path d="M5240 4700 l0 -230 75 0 75 0 0 230 0 230 -75 0 -75 0 0 -230z"/>
<path d="M2110 4310 l0 -161 78 3 77 3 0 155 0 155 -77 3 -78 3 0 -161z"/>
<path d="M5074 4456 c-3 -7 -4 -78 -2 -157 l3 -144 78 -3 77 -3 0 161 0 160
-75 0 c-55 0 -77 -4 -81 -14z"/>
<path d="M2890 4225 l0 -75 -75 0 c-41 0 -75 -3 -76 -7 -16 -151 -24 -143 157
-143 l154 0 0 150 0 150 -80 0 -80 0 0 -75z"/>
<path d="M4460 4225 l0 -74 -82 -3 -83 -3 -3 -73 -3 -73 158 3 158 3 3 125 c4
176 7 170 -78 170 l-70 0 0 -75z"/>
<path d="M1950 3995 l0 -155 74 0 75 0 3 139 c2 76 2 146 0 155 -3 13 -17 16
-78 16 l-74 0 0 -155z"/>
<path d="M5240 3995 l0 -155 75 0 75 0 0 155 0 155 -75 0 -75 0 0 -155z"/>
<path d="M3520 3920 l0 -80 75 0 75 0 0 -75 0 -75 75 0 75 0 0 75 0 75 -75 0
-75 0 0 80 0 80 -75 0 -75 0 0 -80z"/>
<path d="M3360 3765 l0 -75 80 0 81 0 -3 73 -3 72 -77 3 -78 3 0 -76z"/>
<path d="M1800 3680 l0 -150 -80 0 -80 0 0 -235 0 -235 75 0 75 0 0 108 c0 59
3 164 7 235 l6 127 74 0 73 0 0 150 0 150 -75 0 -75 0 0 -150z"/>
<path d="M5390 3680 l0 -150 75 0 75 0 0 150 0 150 -75 0 -75 0 0 -150z"/>
<path d="M5546 3521 c-3 -4 -3 -110 1 -235 l6 -226 74 0 73 0 0 235 0 235 -74
0 c-41 0 -77 -4 -80 -9z"/>
<path d="M1487 3053 c-4 -3 -7 -215 -7 -470 l0 -463 75 0 75 0 0 470 0 470
-68 0 c-38 0 -72 -3 -75 -7z"/>
<path d="M5710 2590 l0 -470 75 0 75 0 -2 468 -3 467 -72 3 -73 3 0 -471z"/>
<path d="M2738 2430 l3 -311 152 3 152 3 0 75 0 75 -76 3 -76 3 -6 112 c-4 62
-7 165 -7 230 l0 117 -72 0 -73 0 3 -310z"/>
<path d="M4293 2587 c-1 -83 -2 -187 -2 -229 l-1 -77 -72 -3 -73 -3 -3 -77 -3
-78 156 0 155 0 0 310 0 310 -77 0 -78 0 -2 -153z"/>
<path d="M3050 2435 l0 -155 75 0 75 0 0 155 0 155 -75 0 -75 0 0 -155z"/>
<path d="M3990 2435 l0 -155 75 0 75 0 -2 155 -2 155 -73 0 -73 0 0 -155z"/>
<path d="M1640 1960 l0 -150 74 0 75 0 3 140 c2 77 2 145 0 150 -2 6 -37 10
-78 10 l-74 0 0 -150z"/>
<path d="M5550 1970 c0 -77 -1 -143 -2 -147 -2 -5 32 -9 75 -11 l77 -3 0 151
0 150 -75 0 -75 0 0 -140z"/>
<path d="M2270 1730 l0 -230 75 0 75 0 0 155 0 155 155 0 155 0 0 75 0 75
-230 0 -230 0 0 -230z"/>
<path d="M4460 1885 l0 -75 150 0 150 0 0 -155 0 -155 80 0 80 0 0 230 0 230
-230 0 -230 0 0 -75z"/>
<path d="M1800 1655 l0 -155 75 0 76 0 -3 153 -3 152 -72 3 -73 3 0 -156z"/>
<path d="M2737 1803 c-4 -3 -7 -39 -7 -80 l0 -73 75 0 75 0 0 80 0 80 -68 0
c-38 0 -72 -3 -75 -7z"/>
<path d="M4297 1803 c-2 -5 -3 -39 -3 -78 l1 -70 78 -3 77 -3 0 81 0 80 -74 0
c-41 0 -77 -3 -79 -7z"/>
<path d="M5397 1803 c-4 -3 -7 -39 -7 -80 l0 -73 75 0 75 0 0 80 0 80 -68 0
c-38 0 -72 -3 -75 -7z"/>
<path d="M2928 1643 l-38 -4 0 -230 0 -229 -155 0 -155 0 0 155 0 155 -80 0
-80 0 0 -75 0 -75 -155 0 -155 0 0 -80 0 -80 235 0 235 0 0 -75 0 -75 1010 0
1010 0 0 75 0 75 -155 0 -155 0 0 230 0 230 -75 0 -75 0 0 -230 0 -230 -546 2
-545 3 -2 229 -2 230 -40 1 c-22 1 -57 0 -77 -2z"/>
<path d="M5308 1642 l-68 -3 0 -69 0 -70 75 0 75 0 0 69 c0 39 -3 71 -7 73 -5
2 -38 2 -75 0z"/>
<path d="M1952 1418 l3 -73 70 0 70 0 3 73 3 72 -76 0 -76 0 3 -72z"/>
<path d="M4610 1335 l0 -155 230 0 230 0 0 80 0 80 -155 0 -155 0 0 75 0 75
-75 0 -75 0 0 -155z"/>
<path d="M5082 1418 l3 -73 73 0 c39 0 72 3 72 8 0 4 0 36 0 72 l0 65 -75 0
-76 0 3 -72z"/>
</g>
</svg>
